<?xml version="1.0" ?><!DOCTYPE svg  PUBLIC '-//W3C//DTD SVG 1.1//EN'  'http://www.w3.org/Graphics/SVG/1.1/DTD/svg11.dtd'><svg height="512px" style="enable-background:new 0 0 512 512;" version="1.1" viewBox="0 0 512 512" width="512px" xml:space="preserve" xmlns="http://www.w3.org/2000/svg" xmlns:xlink="http://www.w3.org/1999/xlink"><g id="C_-_69_x2C__Friends_x2C__business_x2C__group_x2C__people_x2C__protection_x2C__team_x2C__workgroup"><g><rect height="84.056" style="fill-rule:evenodd;clip-rule:evenodd;" width="122.043" x="72.953" y="363.452"/><path d="M204.367,354.081h18.421v-70.463c0-22.948-18.768-41.617-41.837-41.617    H87.067c-23.111,0-41.913,18.704-41.913,41.692v70.388h18.428v-60.708c0-2.588,2.098-4.686,4.686-4.686    c2.587,0,4.686,2.098,4.686,4.686v60.708h122.043v-60.708c0-2.588,2.098-4.686,4.686-4.686c2.587,0,4.685,2.098,4.685,4.686    V354.081z M143.39,302.709h-18.8v-18.681h18.8V302.709z M143.39,274.685h-18.8v-18.688h18.8V274.685z" style="fill-rule:evenodd;clip-rule:evenodd;"/><path d="M167.107,232.63h13.843c28.237,0,51.208,22.873,51.208,50.988v23.75h47.683    v-23.75c0-28.115,22.973-50.988,51.208-50.988h13.507c-2.312-20.976-19.937-37.342-41.275-37.342h-93.882    C187.922,195.288,169.555,211.958,167.107,232.63z M265.416,255.996h-18.8v-18.68h18.8V255.996z M246.593,209.291h18.8v18.681    h-18.8V209.291z" style="fill-rule:evenodd;clip-rule:evenodd;"/><path d="M256.005,156.492c25.595,0,46.418-20.637,46.418-46.004    c0-25.363-20.823-45.996-46.418-45.996c-25.596,0-46.42,20.633-46.42,45.996C209.585,135.855,230.409,156.492,256.005,156.492z" style="fill-rule:evenodd;clip-rule:evenodd;"/><path d="M133.97,204.597c25.596,0,46.419-20.948,46.419-46.696    s-20.824-46.696-46.419-46.696s-46.419,20.948-46.419,46.696S108.375,204.597,133.97,204.597z" style="fill-rule:evenodd;clip-rule:evenodd;"/><path d="M279.842,358.767v-42.027h-47.683v42.027c0,2.588-2.098,4.686-4.686,4.686    h-23.106v37.342h103.274v-37.342h-23.113C281.94,363.452,279.842,361.354,279.842,358.767z" style="fill-rule:evenodd;clip-rule:evenodd;"/><path d="M378.029,204.597c25.596,0,46.421-20.634,46.421-45.997    c0-25.367-20.825-46.004-46.421-46.004s-46.419,20.637-46.419,46.004C331.61,183.963,352.434,204.597,378.029,204.597z" style="fill-rule:evenodd;clip-rule:evenodd;"/><path d="M317.012,403.686c0.23,0.553,0.359,1.158,0.359,1.794    s-0.129,1.241-0.359,1.794v40.234h122.044v-84.056H317.012V403.686z" style="fill-rule:evenodd;clip-rule:evenodd;"/><path d="M424.941,242.001H331.05c-23.068,0-41.837,18.669-41.837,41.617v70.463    h18.428v-60.708c0-2.588,2.098-4.686,4.686-4.686s4.686,2.098,4.686,4.686v60.708h122.044v-60.708    c0-2.588,2.098-4.686,4.686-4.686s4.686,2.098,4.686,4.686v60.708h18.42v-70.395C466.847,260.701,448.048,242.001,424.941,242.001    z M387.442,302.709h-18.8v-18.681h18.8V302.709z M387.442,274.685h-18.8v-18.688h18.8V274.685z" style="fill-rule:evenodd;clip-rule:evenodd;"/></g></g><g id="Layer_1"/></svg>