<svg width="200" height="200" xmlns="http://www.w3.org/2000/svg">

 <g>
  <title>background</title>
  <rect fill="none" id="canvas_background" height="402" width="582" y="-1" x="-1"/>
 </g>
 <g>
  <title>Layer 1</title>
  <path id="svg_2" fill="#000000" d="m161.039,133.31c-0.461,-2.022 -1.58,-3.931 -3.347,-5.475c-1.776,-1.532 -3.945,-2.458 -6.193,-2.798l-36.148,-6.993l10.457,6.94l-16.508,51.757l-9.3,-38.446l-9.298,38.446l-16.506,-51.757l10.454,-6.94l-36.148,6.993c-2.249,0.34 -4.416,1.266 -6.194,2.798c-1.764,1.544 -2.885,3.452 -3.346,5.475l-10.717,47.08l20.218,7.014c6.714,6.976 25.5,12.108 48.035,12.597l3.502,0l3.504,0c22.534,-0.488 41.32,-5.621 48.034,-12.597l20.218,-7.014l-10.717,-47.08z"/>
  <polygon id="svg_3" points="100,123.298 91.667,126.281 100,138.295 108.335,126.281  " fill="#000000"/>
  <path id="svg_4" fill="#000000" d="m115.569,101.479c0,1.268 -1.036,2.304 -2.303,2.304l-26.534,0c-1.266,0 -2.301,-1.036 -2.301,-2.304l0,0c0,-1.268 1.036,-2.305 2.301,-2.305l26.535,0c1.266,0 2.302,1.038 2.302,2.305l0,0zm-15.569,-82.04c1.266,0 2.305,-1.034 2.305,-2.303l0,-14.831c0,-1.265 -1.039,-2.305 -2.305,-2.305l0,0c-1.266,0 -2.305,1.04 -2.305,2.305l0,14.831c0,1.269 1.039,2.303 2.305,2.303l0,0zm19.876,5.33c1.099,0.633 2.513,0.254 3.149,-0.845l7.414,-12.845c0.634,-1.096 0.254,-2.512 -0.846,-3.145l0,0c-1.096,-0.634 -2.512,-0.254 -3.143,0.841l-7.417,12.848c-0.632,1.095 -0.254,2.511 0.843,3.146l0,0zm14.551,14.547c0.633,1.096 2.049,1.479 3.146,0.845l12.844,-7.417c1.098,-0.633 1.478,-2.049 0.845,-3.145l0,0c-0.634,-1.098 -2.05,-1.476 -3.146,-0.843l-12.844,7.414c-1.099,0.634 -1.48,2.049 -0.845,3.146l0,0zm5.328,19.879c0,1.266 1.035,2.305 2.301,2.302l14.835,0c1.264,0 2.3,-1.036 2.3,-2.302l0,0c0,-1.268 -1.036,-2.303 -2.3,-2.303l-14.835,0c-1.269,0 -2.301,1.036 -2.301,2.303l0,0zm-59.63,-34.426c1.096,-0.635 1.478,-2.051 0.841,-3.146l-7.416,-12.849c-0.634,-1.096 -2.048,-1.476 -3.145,-0.841l0,0c-1.1,0.633 -1.478,2.049 -0.843,3.145l7.416,12.845c0.635,1.1 2.049,1.478 3.147,0.846l0,0zm-14.552,14.547c0.634,-1.098 0.254,-2.512 -0.842,-3.146l-12.845,-7.417c-1.098,-0.629 -2.516,-0.255 -3.148,0.845l0,0c-0.633,1.096 -0.251,2.514 0.845,3.145l12.844,7.417c1.099,0.631 2.513,0.252 3.146,-0.844l0,0zm-5.326,19.876c0,-1.266 -1.036,-2.302 -2.3,-2.305l-14.834,0c-1.268,0.003 -2.303,1.04 -2.303,2.305l0,0c0,1.267 1.036,2.305 2.303,2.305l14.834,0c1.264,0 2.3,-1.038 2.3,-2.305l0,0zm55.322,48.613c0,-1.268 -1.036,-2.304 -2.303,-2.304l-26.534,0c-1.266,0 -2.301,1.036 -2.301,2.304l0,0c0,1.267 1.036,2.303 2.301,2.303l26.535,0c1.266,-0.001 2.302,-1.037 2.302,-2.303l0,0zm-23.347,4.02c1.082,3.264 4.152,5.622 7.778,5.622c3.627,0 6.697,-2.358 7.779,-5.622l-15.557,0zm7.778,-52.732l0.003,0l0,0c1.548,-1.462 3.94,-4.25 3.94,-6.724c0,-2.309 -1.77,-4.189 -3.94,-4.189c-2.178,0 -3.945,1.881 -3.945,4.189c0,2.474 2.394,5.262 3.942,6.724zm-2.195,4.946c0.283,-0.177 0.546,-0.364 0.802,-0.534c0.255,-0.171 0.495,-0.333 0.718,-0.484c0.097,-0.065 0.371,-0.272 0.679,-0.505c0.302,0.233 0.576,0.44 0.675,0.505c0.223,0.152 0.462,0.313 0.718,0.484c0.253,0.17 0.52,0.357 0.803,0.534c0.563,0.354 1.165,0.732 1.768,1.11l0.057,0.035l0.053,0.034l0.03,0.016l0.111,0.063l0.229,0.129c0.152,0.085 0.301,0.168 0.451,0.251c0.299,0.168 0.596,0.334 0.88,0.493c0.603,0.301 1.165,0.583 1.647,0.828c0.389,0.18 0.722,0.335 0.984,0.458l-4.901,28.161l-7.018,0l-4.9,-28.161c0.263,-0.122 0.596,-0.277 0.984,-0.458c0.481,-0.244 1.046,-0.527 1.647,-0.828c0.287,-0.159 0.58,-0.325 0.879,-0.493c0.15,-0.083 0.302,-0.166 0.454,-0.251l0.226,-0.129l0.113,-0.063l0.03,-0.016l0.051,-0.034l0.061,-0.035c0.602,-0.378 1.205,-0.757 1.769,-1.11zm34.623,-4.847c0,9.522 -4.106,18.086 -10.64,24.019c-0.018,0.009 -0.979,0.816 -1.446,1.223c-3.072,2.671 -4.775,6.788 -4.775,11.182l-11.561,0l6.01,-27.427c1.279,0.594 3.56,1.484 5.77,1.484c1.017,0 1.927,-0.191 2.701,-0.565c1.386,-0.672 2.442,-1.874 2.977,-3.394c0.532,-1.513 0.478,-3.161 -0.152,-4.633c-0.926,-2.155 -2.962,-3.548 -5.191,-3.548c-0.818,0 -1.613,0.184 -2.363,0.552c-2.806,1.357 -4.303,5.356 -4.896,7.375c-0.173,-0.096 -0.364,-0.202 -0.572,-0.318c-0.434,-0.258 -0.94,-0.559 -1.481,-0.878c-0.274,-0.179 -0.557,-0.366 -0.845,-0.553c-0.144,-0.096 -0.288,-0.191 -0.436,-0.285l-0.217,-0.143l-0.108,-0.074l-0.028,-0.016l-0.003,-0.003c0.011,0.005 0.028,0.016 0.022,0.014l-0.005,-0.005l-0.015,-0.009l-0.053,-0.037c-0.555,-0.407 -1.11,-0.813 -1.634,-1.191c-0.258,-0.191 -0.502,-0.389 -0.733,-0.569c-0.233,-0.18 -0.454,-0.354 -0.657,-0.513c-0.02,-0.016 -0.041,-0.032 -0.061,-0.049c1.692,-1.672 4.492,-4.963 4.492,-8.46c0,-3.825 -2.928,-6.935 -6.523,-6.935c-3.603,0 -6.528,3.109 -6.528,6.935c0,3.497 2.798,6.788 4.492,8.46c-0.021,0.018 -0.041,0.034 -0.06,0.049c-0.205,0.159 -0.424,0.333 -0.658,0.513c-0.233,0.181 -0.476,0.378 -0.735,0.569c-0.521,0.378 -1.078,0.785 -1.633,1.191l-0.051,0.037l-0.012,0.009l-0.007,0.005c-0.003,0.002 0.007,-0.005 0.014,-0.009l-0.021,0.014l-0.11,0.074l-0.219,0.143c-0.145,0.094 -0.29,0.189 -0.435,0.285c-0.287,0.188 -0.569,0.375 -0.845,0.553c-0.541,0.32 -1.046,0.621 -1.478,0.878c-0.21,0.117 -0.403,0.223 -0.575,0.318c-0.596,-2.019 -2.091,-6.017 -4.898,-7.375c-0.75,-0.368 -1.543,-0.552 -2.363,-0.552c-2.228,0 -4.266,1.393 -5.188,3.548c-0.633,1.472 -0.688,3.12 -0.152,4.633c0.532,1.521 1.587,2.722 2.973,3.394c0.776,0.375 1.687,0.565 2.705,0.565c2.209,0 4.49,-0.891 5.766,-1.484l6.01,27.427l-11.563,0c0,-4.395 -1.704,-8.511 -4.776,-11.182c-0.467,-0.407 -1.43,-1.214 -1.444,-1.223c-6.539,-5.933 -10.644,-14.497 -10.644,-24.019c0,-17.906 14.52,-32.43 32.43,-32.43s32.428,14.524 32.428,32.43zm-16.643,8.617c-2.058,0 -4.288,-0.949 -5.342,-1.463c0.445,-1.598 1.726,-5.443 4.044,-6.563c0.517,-0.254 1.066,-0.38 1.632,-0.38c1.543,0 2.954,0.961 3.592,2.455c0.437,1.018 0.476,2.157 0.106,3.207c-0.368,1.046 -1.1,1.881 -2.06,2.348c-0.545,0.262 -1.208,0.396 -1.972,0.396zm-26.228,-1.463c-1.054,0.514 -3.281,1.463 -5.338,1.463c-0.765,0 -1.428,-0.134 -1.975,-0.397c-0.959,-0.467 -1.691,-1.301 -2.061,-2.348c-0.368,-1.05 -0.331,-2.188 0.106,-3.207c0.642,-1.494 2.052,-2.455 3.592,-2.455c0.565,0 1.117,0.125 1.635,0.38c2.319,1.121 3.599,4.966 4.041,6.564z"/>
 </g>
</svg>